<svg width="15" height="15" viewBox="0 0 15 15" fill="none" xmlns="http://www.w3.org/2000/svg">
<path d="M5.15625 14.1328V10.8984L2.74219 12.6797C3.42188 13.3125 4.24219 13.8047 5.15625 14.1328ZM9.84375 14.1328C10.7578 13.8047 11.5781 13.3125 12.2578 12.6797L9.84375 10.875V14.1328ZM0.867188 9.84375C0.9375 10.0781 1.03125 10.2891 1.14844 10.5234L2.0625 9.84375H0.867188ZM12.9375 9.84375L13.8516 10.5234C13.9453 10.3125 14.0391 10.0781 14.1328 9.84375H12.9375Z" fill="#2A5F9E"/>
<path d="M5.50781 8.90625H0.609375C0.679688 9.23438 0.773438 9.53906 0.867188 9.84375H2.0625L1.14844 10.5234C1.33594 10.9219 1.54687 11.2734 1.80469 11.625L4.21875 9.84375H5.15625V10.3125L2.41406 12.3281L2.74219 12.6562L5.15625 10.8984V14.1328C5.46094 14.25 5.76562 14.3203 6.09375 14.3906V8.90625H5.50781ZM14.3906 8.90625H8.90625V14.3906C9.23438 14.3203 9.53906 14.2266 9.84375 14.1328V10.8984L12.2578 12.6562C12.5859 12.3516 12.8672 12.0234 13.1484 11.6719L10.6406 9.84375H12.2344L13.6641 10.8984C13.7344 10.7812 13.8047 10.6406 13.8516 10.5234L12.9375 9.84375H14.1328C14.2266 9.53906 14.3203 9.23438 14.3906 8.90625Z" fill="white"/>
<path d="M1.80469 11.625C1.99219 11.8828 2.17969 12.1172 2.39062 12.3516L5.15625 10.3359V9.86719H4.21875L1.80469 11.625ZM10.6641 9.84375L13.1719 11.6719C13.2656 11.5547 13.3359 11.4375 13.4297 11.3203C13.4531 11.2969 13.4531 11.2734 13.4766 11.2734C13.5469 11.1562 13.6406 11.0156 13.7109 10.8984L12.2344 9.84375H10.6641Z" fill="#ED4C5C"/>
<path d="M9.84375 0.867188V4.10156L12.2578 2.32031C11.5781 1.6875 10.7578 1.19531 9.84375 0.867188ZM5.15625 0.867188C4.24219 1.19531 3.42188 1.6875 2.74219 2.32031L5.15625 4.125V0.867188ZM14.1328 5.15625C14.0625 4.92188 13.9687 4.71094 13.8516 4.47656L12.9375 5.15625H14.1328ZM2.0625 5.15625L1.14844 4.47656C1.05469 4.71094 0.960938 4.92188 0.867188 5.15625H2.0625Z" fill="#2A5F9E"/>
<path d="M9.49219 6.09375H14.3672C14.2969 5.76562 14.2031 5.46094 14.1094 5.15625H12.9141L13.8281 4.47656C13.6406 4.07812 13.4297 3.72656 13.1719 3.375L10.7812 5.15625H9.84375V4.6875L12.5859 2.67187L12.2578 2.34375L9.84375 4.10156V0.867188C9.53906 0.75 9.23438 0.679688 8.90625 0.609375V6.09375H9.49219ZM0.609375 6.09375H6.09375V0.609375C5.76562 0.679688 5.46094 0.773438 5.15625 0.867188V4.10156L2.74219 2.34375C2.41406 2.64844 2.13281 2.97656 1.85156 3.32812L4.35938 5.15625H2.76563L1.33594 4.10156C1.26562 4.21875 1.19531 4.35938 1.14844 4.47656L2.0625 5.15625H0.867188C0.773438 5.46094 0.679688 5.76562 0.609375 6.09375Z" fill="white"/>
<path d="M13.1953 3.375C13.0078 3.11719 12.8203 2.88281 12.6094 2.64844L9.84375 4.66406V5.13281H10.7812L13.1953 3.375ZM4.33594 5.15625L1.85156 3.32812C1.75781 3.44531 1.6875 3.5625 1.59375 3.67969C1.57031 3.70312 1.57031 3.72656 1.54688 3.72656C1.47656 3.84375 1.38281 3.98438 1.3125 4.10156L2.74219 5.15625H4.33594Z" fill="#ED4C5C"/>
<path d="M14.3906 6.09375H8.90625V0.609375C8.46094 0.515625 7.99219 0.46875 7.5 0.46875C7.00781 0.46875 6.53906 0.515625 6.09375 0.609375V6.09375H0.609375C0.515625 6.53906 0.46875 7.00781 0.46875 7.5C0.46875 7.99219 0.515625 8.46094 0.609375 8.90625H6.09375V14.3906C6.53906 14.4844 7.00781 14.5312 7.5 14.5312C7.99219 14.5312 8.46094 14.4844 8.90625 14.3906V8.90625H14.3906C14.4844 8.46094 14.5312 7.99219 14.5312 7.5C14.5312 7.00781 14.4844 6.53906 14.3906 6.09375Z" fill="#ED4C5C"/>
</svg>
